<?xml version="1.0" encoding="UTF-8"?>
<!DOCTYPE svg PUBLIC "-//W3C//DTD SVG 1.1//EN" "http://www.w3.org/Graphics/SVG/1.1/DTD/svg11.dtd">
<!-- Creator: CorelDRAW X6 -->
<svg xmlns="http://www.w3.org/2000/svg" xml:space="preserve" width="8.26772in" height="11.6929in" version="1.1" style="shape-rendering:geometricPrecision; text-rendering:geometricPrecision; image-rendering:optimizeQuality; fill-rule:evenodd; clip-rule:evenodd"
viewBox="0 0 8268 11693"
 xmlns:xlink="http://www.w3.org/1999/xlink">
 <defs>
  <style type="text/css">
   <![CDATA[
    .fil0 {fill:none}
   ]]>
  </style>
   <clipPath id="id0">
    <path d="M4134 3857c1099,0 1989,891 1989,1989 0,1099 -891,1989 -1989,1989 -1099,0 -1989,-891 -1989,-1989 0,-1099 891,-1989 1989,-1989z"/>
   </clipPath>
    <clipPath id="id1">
     <path d="M4134 3857c1099,0 1989,891 1989,1989 0,1099 -891,1989 -1989,1989 -1099,0 -1989,-891 -1989,-1989 0,-1099 891,-1989 1989,-1989z"/>
    </clipPath>
    <clipPath id="id2">
     <path d="M4134 3857c1099,0 1989,891 1989,1989 0,1099 -891,1989 -1989,1989 -1099,0 -1989,-891 -1989,-1989 0,-1099 891,-1989 1989,-1989z"/>
    </clipPath>
 </defs>
 <g id="Layer_x0020_1">
  <metadata id="CorelCorpID_0Corel-Layer"/>
  <g>
  </g>
  <g style="clip-path:url(#id0)">
   <g>
   </g>
   <g style="clip-path:url(#id1)">
    <image id="BARQAAB-Mono.jpg" transform="matrix(0.228844 0 0 0.228844 1198.58 6501.38)" x="4134" y="-11570" width="17385" height="17417" xlink:href="mono1_Images\mono1_ImgID1.png"/>
   </g>
   <g style="clip-path:url(#id2)">
   </g>
  </g>
  <path class="fil0" d="M4134 3857c1099,0 1989,891 1989,1989 0,1099 -891,1989 -1989,1989 -1099,0 -1989,-891 -1989,-1989 0,-1099 891,-1989 1989,-1989z"/>
 </g>
</svg>
